<?xml version="1.0" encoding="UTF-8"?>
<svg width="42px" height="42px" viewBox="0 0 42 42" version="1.1" xmlns="http://www.w3.org/2000/svg" xmlns:xlink="http://www.w3.org/1999/xlink">
    <title>编组备份 4</title>
    <defs>
        <circle id="path-1" cx="20" cy="20" r="20"></circle>
    </defs>
    <g id="页面-1" stroke="none" stroke-width="1" fill="none" fill-rule="evenodd">
        <g id="管理员账户首页" transform="translate(-63.000000, -521.000000)">
            <g id="编组备份-4" transform="translate(64.000000, 522.000000)">
                <path d="M18.3073763,4.18482864 C18.6194877,4.01739592 19.0127554,4.20421766 19.4871795,4.74529384 C19.0705648,4.68221235 19.0528503,4.82440451 19.0569993,4.8636742 L19.1168427,6.89769525 C18.6881138,6.95708246 18.4737494,6.91772521 18.4737494,6.7796235 C18.4056505,6.33748511 18.2154649,6.05470268 17.9031927,5.9312762 L17.7977394,5.48876096 C17.4330118,5.73089357 17.2198041,5.98584338 17.1581163,6.25361038 C17.3010464,6.5104297 17.3558228,6.77501221 17.3224456,7.04735792 L17.6833704,7.01383152 L17.8157689,7.00256071 C17.8562682,6.99933185 17.8854094,6.99731988 17.9031927,6.9965248 C17.9185183,6.99583961 18.0329934,7.19404479 18.2466179,7.59114034 C18.1255359,7.8634504 17.8760387,8.2047984 17.4981263,8.61518435 C17.4555794,8.66138729 17.2240589,8.74726207 16.9882638,8.82485798 L16.9358696,8.84194575 L16.8134638,8.88076526 C16.7039052,8.91486311 16.6041623,8.94421373 16.53517,8.96338214 L16.4985054,8.97338507 C16.4656513,8.98214842 16.4446926,8.98707251 16.4398079,8.98707251 C16.3721667,8.94130132 16.3508229,8.88451114 16.3757767,8.81670197 L16.3286489,8.82479878 L16.2847516,8.8316001 C16.1226708,8.8551888 16.0317981,8.85022276 16.0121337,8.81670197 C15.9404258,8.68967797 16.2815963,8.39047856 16.2887685,8.39047856 L16.5505562,8.39047856 L16.7884644,8.08944862 L16.6417837,8.07256609 L16.5498592,8.06303148 C16.4821313,8.05655435 16.4454475,8.05472131 16.4398079,8.05753236 C15.7204546,8.6168785 14.734884,8.81929707 13.4830962,8.66478808 C11.5534794,8.98707251 10.2629358,10.7099605 9.69230769,12.4102564 C9.98034328,9.43088195 11.0736846,7.85870809 12.7400593,6.9965248 C13.3178895,6.9965248 14.9043974,6.63870665 15.3607779,5.71837739 C15.2740165,5.70857161 15.1829824,5.70857161 15.0876756,5.71837739 C15.7298426,4.54430231 17.1581163,3.85561621 18.3073763,4.18482864 Z M12.6153846,6.9760513 C11.4678206,7.42360039 10.4763676,8.20936107 9.64102564,9.33333333 C9.81099265,7.71856144 10.8024456,6.93280076 12.6153846,6.9760513 Z" id="形状" fill="#205CFF"></path>
                <circle id="椭圆形" stroke="#205CFF" stroke-width="0.5" cx="20" cy="20" r="10.5192308"></circle>
                <g id="椭圆形备份-4">
                    <mask id="mask-2" fill="white">
                        <use xlink:href="#path-1"></use>
                    </mask>
                    <use id="椭圆形备份-3" stroke="#205CFF" stroke-width="0.615384615" xlink:href="#path-1"></use>
                    <g id="编组-27" mask="url(#mask-2)" stroke="#205CFF" stroke-width="0.5">
                        <g transform="translate(-16.397960, -16.423418)" id="路径-16">
                            <line x1="19.0654209" y1="4.37817812" x2="19.0654209" y2="65.2961882"></line>
                            <line x1="19.2783622" y1="2.70977696" x2="19.2820319" y2="63.6275893" transform="translate(19.280197, 33.168618) rotate(6.000000) translate(-19.280197, -33.168618) "></line>
                            <line x1="19.6632705" y1="1.0711588" x2="19.6698823" y2="61.9885098" transform="translate(19.666576, 31.529757) rotate(11.000000) translate(-19.666576, -31.529757) "></line>
                            <line x1="20.2044516" y1="-0.522276476" x2="20.2143213" y2="60.3941862" transform="translate(20.209386, 29.935502) rotate(17.000000) translate(-20.209386, -29.935502) "></line>
                            <line x1="20.8971456" y1="-2.05584915" x2="20.9094063" y2="58.8596206" transform="translate(20.903276, 28.401685) rotate(22.000000) translate(-20.903276, -28.401685) "></line>
                            <line x1="21.7346742" y1="-3.51502896" x2="21.7493068" y2="57.3989913" transform="translate(21.741991, 26.941836) rotate(28.000000) translate(-21.741991, -26.941836) "></line>
                            <line x1="22.7095773" y1="-4.88645999" x2="22.7257014" y2="56.0261803" transform="translate(22.717639, 25.569766) rotate(33.000000) translate(-22.717639, -25.569766) "></line>
                            <line x1="23.8124785" y1="-6.15708775" x2="23.8297428" y2="54.7537529" transform="translate(23.821111, 24.298296) rotate(39.000000) translate(-23.821111, -24.298296) "></line>
                            <line x1="25.0332884" y1="-7.31536705" x2="25.0509277" y2="53.5939076" transform="translate(25.042108, 23.139286) rotate(44.000000) translate(-25.042108, -23.139286) "></line>
                            <line x1="26.3605331" y1="-8.35020286" x2="26.377915" y2="52.5571842" transform="translate(26.369224, 22.103566) rotate(50.000000) translate(-26.369224, -22.103566) "></line>
                            <line x1="27.7817866" y1="-9.25226254" x2="27.7983722" y2="51.6536005" transform="translate(27.790079, 21.200796) rotate(55.000000) translate(-27.790079, -21.200796) "></line>
                            <line x1="29.2837073" y1="-10.0129764" x2="29.2986754" y2="50.891186" transform="translate(29.291191, 20.439525) rotate(61.000000) translate(-29.291191, -20.439525) "></line>
                            <line x1="30.8524742" y1="-10.6252623" x2="30.8655908" y2="50.27764" transform="translate(30.859033, 19.826579) rotate(66.000000) translate(-30.859033, -19.826579) "></line>
                            <line x1="32.473691" y1="-11.0831895" x2="32.4840654" y2="49.8184467" transform="translate(32.478878, 19.367794) rotate(72.000000) translate(-32.478878, -19.367794) "></line>
                            <line x1="34.1318969" y1="-11.3826845" x2="34.1390758" y2="49.5180055" transform="translate(34.135486, 19.067549) rotate(78.000000) translate(-34.135486, -19.067549) "></line>
                            <line x1="35.81089" y1="-11.5213103" x2="35.81516" y2="49.3788661" transform="translate(35.813025, 18.928700) rotate(83.000000) translate(-35.813025, -18.928700) "></line>
                            <line x1="37.4959133" y1="-11.4973703" x2="37.4965293" y2="49.4025427" transform="translate(37.496221, 18.952451) rotate(89.000000) translate(-37.496221, -18.952451) "></line>
                            <line x1="39.1704904" y1="-11.3112174" x2="39.1680339" y2="49.5887782" transform="translate(39.169262, 19.138593) rotate(94.000000) translate(-39.169262, -19.138593) "></line>
                            <line x1="40.8192403" y1="-10.9649621" x2="40.8132037" y2="49.9354912" transform="translate(40.816222, 19.485339) rotate(100.000000) translate(-40.816222, -19.485339) "></line>
                            <line x1="42.4266942" y1="-10.4611395" x2="42.4178692" y2="50.4399806" transform="translate(42.422282, 19.989510) rotate(105.000000) translate(-42.422282, -19.989510) "></line>
                            <line x1="43.9781061" y1="-9.80484095" x2="43.9662959" y2="51.0973914" transform="translate(43.972201, 20.646378) rotate(111.000000) translate(-43.972201, -20.646378) "></line>
                            <line x1="45.4584631" y1="-9.00199193" x2="45.4445547" y2="51.9013943" transform="translate(45.451509, 21.449814) rotate(116.000000) translate(-45.451509, -21.449814) "></line>
                            <line x1="46.8543266" y1="-8.06030142" x2="46.8384629" y2="52.8446896" transform="translate(46.846395, 22.392315) rotate(122.000000) translate(-46.846395, -22.392315) "></line>
                            <line x1="48.1523154" y1="-6.98827457" x2="48.1353491" y2="53.9181894" transform="translate(48.143832, 23.465084) rotate(127.000000) translate(-48.143832, -23.465084) "></line>
                            <line x1="49.3405145" y1="-5.79618895" x2="49.3229074" y2="55.1121385" transform="translate(49.331711, 24.658103) rotate(133.000000) translate(-49.331711, -24.658103) "></line>
                            <line x1="50.4077115" y1="-4.49484529" x2="50.3901581" y2="56.4150596" transform="translate(50.398935, 25.960236) rotate(138.000000) translate(-50.398935, -25.960236) "></line>
                            <line x1="51.3439375" y1="-3.09667747" x2="51.3271513" y2="57.8150783" transform="translate(51.335544, 27.359326) rotate(144.000000) translate(-51.335544, -27.359326) "></line>
                            <line x1="52.1404341" y1="-1.61455087" x2="52.1251487" y2="59.2989336" transform="translate(52.132791, 28.842309) rotate(150.000000) translate(-52.132791, -28.842309) "></line>
                            <line x1="52.7899883" y1="-0.0621603007" x2="52.7764676" y2="60.8526166" transform="translate(52.783228, 30.395339) rotate(155.000000) translate(-52.783228, -30.395339) "></line>
                            <line x1="53.28622" y1="1.54577537" x2="53.2753535" y2="62.4618667" transform="translate(53.280787, 32.003919) rotate(161.000000) translate(-53.280787, -32.003919) "></line>
                            <line x1="53.6249585" y1="3.19446282" x2="53.6166723" y2="64.1114135" transform="translate(53.620815, 33.653024) rotate(166.000000) translate(-53.620815, -33.653024) "></line>
                            <line x1="53.8026129" y1="4.86889362" x2="53.7977479" y2="65.7865531" transform="translate(53.800180, 35.327527) rotate(172.000000) translate(-53.800180, -35.327527) "></line>
                            <line x1="53.8180242" y1="6.55233433" x2="53.8161792" y2="67.4702949" transform="translate(53.817102, 37.011183) rotate(177.000000) translate(-53.817102, -37.011183) "></line>
                            <line x1="53.6705719" y1="8.2299124" x2="53.6724168" y2="69.1478729" transform="translate(53.671494, 38.688720) rotate(183.000000) translate(-53.671494, -38.688720) "></line>
                            <line x1="53.3623341" y1="9.88491764" x2="53.3671991" y2="70.8025771" transform="translate(53.364767, 40.343953) rotate(188.000000) translate(-53.364767, -40.343953) "></line>
                            <line x1="52.8955557" y1="11.5036532" x2="52.9038419" y2="72.4206039" transform="translate(52.899699, 41.962276) rotate(194.000000) translate(-52.899699, -41.962276) "></line>
                            <line x1="52.275362" y1="13.0691396" x2="52.2862285" y2="73.9852309" transform="translate(52.280795, 43.527722) rotate(199.000000) translate(-52.280795, -43.527722) "></line>
                            <line x1="51.5067149" y1="14.5691944" x2="51.5202356" y2="75.4839712" transform="translate(51.513475, 45.026783) rotate(205.000000) translate(-51.513475, -45.026783) "></line>
                            <line x1="50.5975703" y1="15.9876051" x2="50.6128557" y2="76.9010896" transform="translate(50.605213, 46.444501) rotate(210.000000) translate(-50.605213, -46.444501) "></line>
                            <line x1="49.555999" y1="17.3119546" x2="49.5727852" y2="78.2237105" transform="translate(49.564392, 47.767925) rotate(216.000000) translate(-49.564392, -47.767925) "></line>
                            <line x1="48.3919567" y1="18.5297004" x2="48.4095101" y2="79.4396053" transform="translate(48.400733, 48.984683) rotate(222.000000) translate(-48.400733, -48.984683) "></line>
                            <line x1="47.1163095" y1="19.6292594" x2="47.1339166" y2="80.5375868" transform="translate(47.125113, 50.083404) rotate(227.000000) translate(-47.125113, -50.083404) "></line>
                            <line x1="45.740715" y1="20.6011501" x2="45.7576813" y2="81.5076141" transform="translate(45.749198, 51.054019) rotate(233.000000) translate(-45.749198, -51.054019) "></line>
                            <line x1="44.2784131" y1="21.4349105" x2="44.2942769" y2="82.3399015" transform="translate(44.286345, 51.887056) rotate(238.000000) translate(-44.286345, -51.887056) "></line>
                            <line x1="42.7431222" y1="22.1234022" x2="42.7570306" y2="83.0267885" transform="translate(42.750076, 52.574908) rotate(244.000000) translate(-42.750076, -52.574908) "></line>
                            <line x1="41.1483504" y1="22.660689" x2="41.1601606" y2="83.5629214" transform="translate(41.154255, 53.111390) rotate(249.000000) translate(-41.154255, -53.111390) "></line>
                            <line x1="39.5103747" y1="23.0404795" x2="39.5191997" y2="83.9415996" transform="translate(39.514787, 53.491095) rotate(255.000000) translate(-39.514787, -53.491095) "></line>
                            <line x1="37.8429772" y1="23.260457" x2="37.8490139" y2="84.1609104" transform="translate(37.845996, 53.710853) rotate(260.000000) translate(-37.845996, -53.710853) "></line>
                            <line x1="36.16227" y1="23.318524" x2="36.1647264" y2="84.2185196" transform="translate(36.163498, 53.768510) rotate(266.000000) translate(-36.163498, -53.768510) "></line>
                            <line x1="34.4837641" y1="23.213523" x2="34.4831482" y2="84.113436" transform="translate(34.483456, 53.663451) rotate(271.000000) translate(-34.483456, -53.663451) "></line>
                            <line x1="32.8236945" y1="22.9464953" x2="32.8194245" y2="83.8466717" transform="translate(32.821559, 53.396705) rotate(277.000000) translate(-32.821559, -53.396705) "></line>
                            <line x1="31.1966173" y1="22.5202599" x2="31.1894384" y2="83.4209499" transform="translate(31.193028, 52.970746) rotate(282.000000) translate(-31.193028, -52.970746) "></line>
                            <line x1="29.6183916" y1="21.9385726" x2="29.6080171" y2="82.8402087" transform="translate(29.613204, 52.389558) rotate(288.000000) translate(-29.613204, -52.389558) "></line>
                            <line x1="28.1033865" y1="21.2069226" x2="28.09027" y2="82.1098249" transform="translate(28.096828, 51.658566) rotate(294.000000) translate(-28.096828, -51.658566) "></line>
                            <line x1="26.6655357" y1="20.3322982" x2="26.6505676" y2="81.2364605" transform="translate(26.658052, 50.784584) rotate(299.000000) translate(-26.658052, -50.784584) "></line>
                            <line x1="25.3183449" y1="19.3227716" x2="25.3017593" y2="80.2286346" transform="translate(25.310052, 49.775599) rotate(305.000000) translate(-25.310052, -49.775599) "></line>
                            <line x1="24.0746401" y1="18.1877727" x2="24.0572582" y2="79.0951598" transform="translate(24.065949, 48.641360) rotate(310.000000) translate(-24.065949, -48.641360) "></line>
                            <line x1="22.9459128" y1="16.9377766" x2="22.9282735" y2="77.8470512" transform="translate(22.937093, 47.392306) rotate(316.000000) translate(-22.937093, -47.392306) "></line>
                            <line x1="21.9426559" y1="15.5847897" x2="21.9253916" y2="76.4956304" transform="translate(21.934024, 46.040104) rotate(321.000000) translate(-21.934024, -46.040104) "></line>
                            <line x1="21.0741687" y1="14.1411585" x2="21.0580446" y2="75.0537988" transform="translate(21.066107, 44.597376) rotate(327.000000) translate(-21.066107, -44.597376) "></line>
                            <line x1="20.3487592" y1="12.620682" x2="20.3341267" y2="73.5347022" transform="translate(20.341443, 43.077597) rotate(332.000000) translate(-20.341443, -43.077597) "></line>
                            <line x1="19.7730399" y1="11.0372828" x2="19.7607792" y2="71.9527526" transform="translate(19.766910, 41.495224) rotate(338.000000) translate(-19.766910, -41.495224) "></line>
                            <line x1="19.3525498" y1="9.40605486" x2="19.34268" y2="70.3225175" transform="translate(19.347615, 39.864467) rotate(343.000000) translate(-19.347615, -39.864467) "></line>
                            <line x1="19.090925" y1="7.74201274" x2="19.0843132" y2="68.6593638" transform="translate(19.087619, 38.200834) rotate(349.000000) translate(-19.087619, -38.200834) "></line>
                            <line x1="18.9911931" y1="6.06084907" x2="18.9875235" y2="66.9786614" transform="translate(18.989358, 36.519860) rotate(354.000000) translate(-18.989358, -36.519860) "></line>
                        </g>
                    </g>
                </g>
                <circle id="椭圆形备份" stroke="#205CFF" stroke-width="0.5" cx="20" cy="20" r="9.49358974"></circle>
                <circle id="椭圆形备份-2" stroke="#205CFF" stroke-width="0.5" cx="20" cy="20" r="17.1858974"></circle>
                <path d="M31.1674163,5.24391936 C31.4795277,5.07648665 31.8727954,5.26330838 32.3472195,5.80438456 C31.9306048,5.74130307 31.9128902,5.88349523 31.9170393,5.92276492 L31.9768826,7.95678597 C31.5481538,8.01617318 31.3337894,7.97681593 31.3337894,7.83871422 C31.2656904,7.39657583 31.0755049,7.1137934 30.7632326,6.99036692 L30.6577793,6.54785169 C30.2930517,6.78998429 30.079844,7.0449341 30.0181562,7.31270111 C30.1610864,7.56952042 30.2158628,7.83410293 30.1824855,8.10644864 L30.5434104,8.07292224 L30.6758089,8.06165143 C30.7163082,8.05842257 30.7454494,8.0564106 30.7632326,8.05561553 C30.7785583,8.05493033 30.8930334,8.25313551 31.1066579,8.65023107 C30.9855758,8.92254112 30.7360787,9.26388912 30.3581663,9.67427507 C30.3156194,9.72047801 30.0840989,9.80635279 29.8483038,9.88394871 L29.7959096,9.90103648 L29.6735038,9.93985598 C29.5639451,9.97395383 29.4642023,10.0033045 29.39521,10.0224729 L29.3585454,10.0324758 L29.3298111,10.0399192 L29.3298111,10.0399192 L29.2998479,10.0461632 L29.2998479,10.0461632 C29.2322066,10.000392 29.2108629,9.94360187 29.2358167,9.8757927 L29.1886888,9.8838895 L29.1447916,9.89069082 C28.9827107,9.91427953 28.8918381,9.90931348 28.8721737,9.8757927 C28.8004658,9.74876869 29.1416362,9.44956928 29.1488084,9.44956928 L29.4105962,9.44956928 L29.6485044,9.14853934 L29.5018237,9.13165681 L29.4098991,9.12212221 C29.3421712,9.11564507 29.3054875,9.11381203 29.2998479,9.11662308 C28.5804945,9.67596922 27.594924,9.8783878 26.3431361,9.72387881 C24.4135194,10.0461632 23.1229758,11.7690512 22.5523477,13.4693471 C22.8403832,10.4899727 23.9337245,8.91779882 25.6000992,8.05561553 C26.1779295,8.05561553 27.7644374,7.69779737 28.2208179,6.77746811 C28.1340565,6.76766233 28.0430224,6.76766233 27.9477156,6.77746811 C28.5898826,5.60339304 30.0181562,4.91470693 31.1674163,5.24391936 Z M25.4754246,8.03514202 C24.3278606,8.48269111 23.3364076,9.26845179 22.5010656,10.3924241 C22.6710326,8.77765216 23.6624856,7.99189148 25.4754246,8.03514202 Z" id="形状" fill="#205CFF" transform="translate(27.424143, 9.315501) rotate(60.000000) translate(-27.424143, -9.315501) "></path>
                <path d="M36.6802368,16.910586 C36.9923482,16.7431533 37.3856159,16.929975 37.86004,17.4710512 C37.4434253,17.4079697 37.4257107,17.5501619 37.4298598,17.5894316 L37.4897031,19.6234526 C37.0609743,19.6828398 36.8466099,19.6434826 36.8466099,19.5053809 C36.7785109,19.0632425 36.5883254,18.7804601 36.2760531,18.6570336 L36.1705999,18.2145184 C35.8058723,18.456651 35.5926646,18.7116008 35.5309767,18.9793678 C35.6739069,19.2361871 35.7286833,19.5007696 35.695306,19.7731153 L36.0562309,19.7395889 L36.1886294,19.7283181 C36.2291287,19.7250892 36.2582699,19.7230773 36.2760531,19.7222822 C36.2913788,19.721597 36.4058539,19.9198022 36.6194784,20.3168977 C36.4983964,20.5892078 36.2488992,20.9305558 35.8709868,21.3409417 C35.8284399,21.3871447 35.5969194,21.4730195 35.3611243,21.5506154 L35.3087301,21.5677031 L35.1863243,21.6065227 C35.0767657,21.6406205 34.9770228,21.6699711 34.9080305,21.6891395 L34.8713659,21.6991425 L34.8426317,21.7065859 L34.8426317,21.7065859 L34.8126684,21.7128299 L34.8126684,21.7128299 C34.7450272,21.6670587 34.7236834,21.6102685 34.7486372,21.5424594 L34.7015093,21.5505562 L34.6576121,21.5573575 C34.4955312,21.5809462 34.4046586,21.5759801 34.3849942,21.5424594 C34.3132863,21.4154354 34.6544567,21.1162359 34.6616289,21.1162359 L34.9234167,21.1162359 L35.1613249,20.815206 L35.0146442,20.7983235 L34.9227196,20.7887889 C34.8549918,20.7823117 34.818308,20.7804787 34.8126684,20.7832898 C34.0933151,21.3426359 33.1077445,21.5450545 31.8559566,21.3905455 C29.9263399,21.7128299 28.6357963,23.4357179 28.0651682,25.1360138 C28.3532038,22.1566393 29.4465451,20.5844655 31.1129197,19.7222822 C31.69075,19.7222822 33.2772579,19.364464 33.7336384,18.4441348 C33.646877,18.434329 33.5558429,18.434329 33.4605361,18.4441348 C34.1027031,17.2700597 35.5309767,16.5813736 36.6802368,16.910586 Z M30.9882451,19.7018087 C29.8406811,20.1493578 28.8492281,20.9351185 28.0138861,22.0590907 C28.1838531,20.4443188 29.1753061,19.6585581 30.9882451,19.7018087 Z" id="形状" fill="#205CFF" transform="translate(32.936963, 20.982168) rotate(120.000000) translate(-32.936963, -20.982168) "></path>
                <path d="M29.3330174,27.518162 C29.6451287,27.3507293 30.0383964,27.537551 30.5128205,28.0786272 C30.0962058,28.0155457 30.0784913,28.1577378 30.0826404,28.1970075 L30.1424837,30.2310286 C29.7137549,30.2904158 29.4993904,30.2510585 29.4993904,30.1129568 C29.4312915,29.6708184 29.2411059,29.388036 28.9288337,29.2646095 L28.8233804,28.8220943 C28.4586528,29.0642269 28.2454451,29.3191767 28.1837573,29.5869437 C28.3266874,29.843763 28.3814639,30.1083455 28.3480866,30.3806913 L28.7090114,30.3471649 L28.84141,30.335894 C28.8819092,30.3326652 28.9110505,30.3306532 28.9288337,30.3298581 C28.9441593,30.3291729 29.0586344,30.5273781 29.2722589,30.9244737 C29.1511769,31.1967837 28.9016797,31.5381317 28.5237674,31.9485177 C28.4812204,31.9947206 28.2496999,32.0805954 28.0139048,32.1581913 L27.9615106,32.1752791 L27.8391049,32.2140986 C27.7295462,32.2481964 27.6298033,32.2775471 27.560811,32.2967155 L27.5241465,32.3067184 L27.4954122,32.3141618 L27.4954122,32.3141618 L27.465449,32.3204058 L27.465449,32.3204058 C27.3978077,32.2746347 27.376464,32.2178445 27.4014178,32.1500353 L27.3542899,32.1581321 L27.3103926,32.1649334 C27.1483118,32.1885221 27.0574392,32.1835561 27.0377748,32.1500353 C26.9660669,32.0230113 27.3072373,31.7238119 27.3144095,31.7238119 L27.5761973,31.7238119 L27.8141054,31.422782 L27.6674247,31.4058994 L27.5755002,31.3963648 C27.5077723,31.3898877 27.4710886,31.3880546 27.465449,31.3908657 C26.7460956,31.9502118 25.760525,32.1526304 24.5087372,31.9981214 C22.5791204,32.3204058 21.2885768,34.0432938 20.7179487,35.7435897 C21.0059843,32.7642153 22.0993256,31.1920414 23.7657003,30.3298581 C24.3435305,30.3298581 25.9300384,29.97204 26.3864189,29.0517107 C26.2996575,29.0419049 26.2086234,29.0419049 26.1133167,29.0517107 C26.7554836,27.8776356 28.1837573,27.1889495 29.3330174,27.518162 Z M23.6410256,30.3093846 C22.4934616,30.7569337 21.5020087,31.5426944 20.6666667,32.6666667 C20.8366337,31.0518948 21.8280867,30.2661341 23.6410256,30.3093846 Z" id="形状" fill="#205CFF" transform="translate(25.589744, 31.589744) rotate(180.000000) translate(-25.589744, -31.589744) "></path>
                <path d="M16.4729774,26.4590712 C16.7850888,26.2916385 17.1783565,26.4784603 17.6527805,27.0195365 C17.2361659,26.956455 17.2184513,27.0986471 17.2226004,27.1379168 L17.2824437,29.1719379 C16.8537149,29.2313251 16.6393505,29.1919678 16.6393505,29.0538661 C16.5712515,28.6117277 16.3810659,28.3289453 16.0687937,28.2055188 L15.9633404,27.7630036 C15.5986128,28.0051362 15.3854051,28.260086 15.3237173,28.527853 C15.4666475,28.7846723 15.5214239,29.0492548 15.4880466,29.3216005 L15.8489714,29.2880741 L15.98137,29.2768033 C16.0218693,29.2735745 16.0510105,29.2715625 16.0687937,29.2707674 C16.0841194,29.2700822 16.1985944,29.4682874 16.412219,29.865383 C16.2911369,30.137693 16.0416397,30.479041 15.6637274,30.889427 C15.6211805,30.9356299 15.38966,31.0215047 15.1538649,31.0991006 L15.1014707,31.1161884 L14.9790649,31.1550079 C14.8695062,31.1891057 14.7697634,31.2184563 14.7007711,31.2376248 L14.6641065,31.2476277 L14.6353722,31.2550711 L14.6353722,31.2550711 L14.605409,31.2613151 L14.605409,31.2613151 C14.5377677,31.2155439 14.516424,31.1587538 14.5413778,31.0909446 L14.4942499,31.0990414 L14.4503526,31.1058427 C14.2882718,31.1294314 14.1973992,31.1244654 14.1777348,31.0909446 C14.1060269,30.9639206 14.4471973,30.6647212 14.4543695,30.6647212 L14.7161573,30.6647212 L14.9540655,30.3636912 L14.8073848,30.3468087 L14.7154602,30.3372741 C14.6477323,30.330797 14.6110486,30.3289639 14.605409,30.331775 C13.8860556,30.8911211 12.900485,31.0935397 11.6486972,30.9390307 C9.71908048,31.2613151 8.42853684,32.9842031 7.85790875,34.684499 C8.14594434,31.7051246 9.23928563,30.1329507 10.9056603,29.2707674 C11.4834906,29.2707674 13.0699984,28.9129493 13.526379,27.99262 C13.4396176,27.9828142 13.3485835,27.9828142 13.2532767,27.99262 C13.8954437,26.8185449 15.3237173,26.1298588 16.4729774,26.4590712 Z M10.7809857,29.2502939 C9.63342168,29.697843 8.64196869,30.4836037 7.8066267,31.6075759 C7.97659371,29.992804 8.9680467,29.2070434 10.7809857,29.2502939 Z" id="形状" fill="#205CFF" transform="translate(12.729704, 30.530653) rotate(240.000000) translate(-12.729704, -30.530653) "></path>
                <path d="M10.9601569,14.7924046 C11.2722682,14.6249719 11.665536,14.8117936 12.13996,15.3528698 C11.7233454,15.2897883 11.7056308,15.4319805 11.7097799,15.4712501 L11.7696232,17.5052712 C11.3408944,17.5646584 11.12653,17.5253012 11.12653,17.3871994 C11.058431,16.9450611 10.8682454,16.6622786 10.5559732,16.5388521 L10.4505199,16.0963369 C10.0857923,16.3384695 9.87258462,16.5934193 9.8108968,16.8611863 C9.95382696,17.1180056 10.0086034,17.3825882 9.9752261,17.6549339 L10.3361509,17.6214075 L10.4685495,17.6101367 C10.5090487,17.6069078 10.53819,17.6048958 10.5559732,17.6041007 C10.5712988,17.6034155 10.6857739,17.8016207 10.8993985,18.1987163 C10.7783164,18.4710263 10.5288192,18.8123743 10.1509069,19.2227603 C10.10836,19.2689632 9.87683944,19.354838 9.64104437,19.4324339 L9.58865017,19.4495217 L9.46624439,19.4883412 C9.35668573,19.522439 9.25694286,19.5517897 9.18795054,19.5709581 L9.15128598,19.580961 L9.12255172,19.5884044 L9.12255172,19.5884044 L9.09258847,19.5946485 L9.09258847,19.5946485 C9.02494722,19.5488773 9.00360349,19.4920871 9.02855728,19.4242779 L8.9814294,19.4323747 L8.93753214,19.439176 C8.7754513,19.4627647 8.68457869,19.4577987 8.66491429,19.4242779 C8.59320637,19.2972539 8.93437681,18.9980545 8.94154902,18.9980545 L9.20333678,18.9980545 L9.44124494,18.6970246 L9.29456425,18.680142 L9.2026397,18.6706074 C9.13491182,18.6641303 9.09822808,18.6622973 9.09258847,18.6651083 C8.37323512,19.2244544 7.38766453,19.426873 6.13587671,19.272364 C4.20625997,19.5946485 2.91571633,21.3175364 2.34508824,23.0178324 C2.63312382,20.0384579 3.72646512,18.466284 5.3928398,17.6041007 C5.97067005,17.6041007 7.55717793,17.2462826 8.01355845,16.3259533 C7.92679704,16.3161476 7.83576296,16.3161476 7.74045619,16.3259533 C8.38262314,15.1518783 9.8108968,14.4631922 10.9601569,14.7924046 Z M5.26816516,17.5836272 C4.12060117,18.0311763 3.12914817,18.816937 2.29380619,19.9409093 C2.4637732,18.3261374 3.45522619,17.5403767 5.26816516,17.5836272 Z" id="形状" fill="#205CFF" transform="translate(7.216883, 18.863986) rotate(300.000000) translate(-7.216883, -18.863986) "></path>
                <g id="编组-25" transform="translate(11.128205, 12.051282)" stroke="#205CFF" stroke-width="0.5">
                    <ellipse id="椭圆形备份-87" fill="#205CFF" cx="4.23796226" cy="9.62562551" rx="1" ry="1"></ellipse>
                    <ellipse id="椭圆形备份-95" fill="#205CFF" cx="13.4174494" cy="11.9333178" rx="1" ry="1"></ellipse>
                    <ellipse id="椭圆形备份-86" fill="#205CFF" cx="5.23990861" cy="10.0859227" rx="1" ry="1"></ellipse>
                    <ellipse id="椭圆形备份-90" fill="#205CFF" cx="3.23990861" cy="13.419256" rx="1" ry="1"></ellipse>
                    <ellipse id="椭圆形备份-91" fill="#205CFF" cx="3.23990861" cy="14.393615" rx="1" ry="1"></ellipse>
                    <ellipse id="椭圆形备份-85" fill="#205CFF" cx="3.23601591" cy="9.35486248" rx="1" ry="1"></ellipse>
                    <ellipse id="椭圆形备份-84" fill="#205CFF" cx="0.176017602" cy="7.62197913" rx="1" ry="1"></ellipse>
                    <ellipse id="椭圆形备份-38" fill="#205CFF" cx="1.42168063" cy="10.1671516" rx="1" ry="1"></ellipse>
                    <ellipse id="椭圆形备份-83" fill="#205CFF" cx="13.6305323" cy="11.9812638" rx="1" ry="1"></ellipse>
                    <ellipse id="椭圆形备份-82" fill="#205CFF" cx="14.2504866" cy="12.712324" rx="1" ry="1"></ellipse>
                    <ellipse id="椭圆形备份-92" fill="#205CFF" cx="15.1735635" cy="11.4815548" rx="1" ry="1"></ellipse>
                    <ellipse id="椭圆形备份-93" fill="#205CFF" cx="15.635102" cy="12.0456573" rx="1" ry="1"></ellipse>
                    <ellipse id="椭圆形备份-94" fill="#205CFF" cx="16.5581789" cy="12.8661701" rx="1" ry="1"></ellipse>
                    <ellipse id="椭圆形备份-81" fill="#205CFF" cx="11.4411441" cy="9.97761744" rx="1" ry="1"></ellipse>
                    <ellipse id="椭圆形备份-80" fill="#205CFF" cx="12.6055682" cy="7.78443694" rx="1" ry="1"></ellipse>
                    <ellipse id="椭圆形备份-79" fill="#205CFF" cx="13.3367183" cy="6.97214787" rx="1" ry="1"></ellipse>
                    <ellipse id="椭圆形备份-88" fill="#205CFF" cx="16.2597952" cy="7.43368633" rx="1" ry="1"></ellipse>
                    <ellipse id="椭圆形备份-89" fill="#205CFF" cx="16.6700516" cy="2.97214787" rx="1" ry="1"></ellipse>
                    <ellipse id="椭圆形备份-78" fill="#205CFF" cx="14.826098" cy="4.61650956" rx="1" ry="1"></ellipse>
                    <ellipse id="椭圆形备份-77" fill="#205CFF" cx="12.5243294" cy="2.775321" rx="1" ry="1"></ellipse>
                    <ellipse id="椭圆形备份-76" fill="#205CFF" cx="11.2515867" cy="0.175995966" rx="1" ry="1"></ellipse>
                    <ellipse id="椭圆形备份-75" fill="#205CFF" cx="6.16061606" cy="2.69409209" rx="1" ry="1"></ellipse>
                    <ellipse id="椭圆形备份-74" fill="#205CFF" cx="5.59194381" cy="2.96485511" rx="1" ry="1"></ellipse>
                    <ellipse id="椭圆形备份-73" fill="#205CFF" cx="6.07937717" cy="3.50638116" rx="1" ry="1"></ellipse>
                    <ellipse id="椭圆形备份-72" fill="#205CFF" cx="5.40238639" cy="3.77714419" rx="1" ry="1"></ellipse>
                    <ellipse id="椭圆形备份-71" fill="#205CFF" cx="4.40044004" cy="4.45405175" rx="1" ry="1"></ellipse>
                    <ellipse id="椭圆形备份-70" fill="#205CFF" cx="7.64999577" cy="7.97397106" rx="1" ry="1"></ellipse>
                    <ellipse id="椭圆形备份-69" fill="#205CFF" cx="7.83955319" cy="9.19240467" rx="1" ry="1"></ellipse>
                    <ellipse id="椭圆形备份-68" fill="#205CFF" cx="7.64999577" cy="10.1671516" rx="1" ry="1"></ellipse>
                    <polyline id="路径-9备份" points="16.6228315 12.8747818 15.6208852 12.0624927 15.2011509 11.4668141 13.6305323 11.9812638 14.1992045 12.712324 15.7174357 12.0271666"></polyline>
                    <polyline id="路径-11备份" points="3.23062409 14.4722836 3.23601591 13.4975368 7.6770754 14.4722836 4.23796226 9.62562551 5.23990861 10.0859227 3.23601591 9.35486248 0.176017602 7.60844098 1.42168063 10.1671516 3.23601591 13.4066566"></polyline>
                    <polyline id="路径-12备份" points="7.64999577 7.97397106 7.853093 9.19240467 7.64999577 10.1671516"></polyline>
                    <polyline id="路径-13备份" points="4.40044004 4.45405175 5.41592621 3.77714419 6.07937717 3.50638116 5.59194381 2.95131696 6.25539477 2.69409209"></polyline>
                    <polyline id="路径-14备份" points="11.2515867 0.175995966 12.5243294 2.775321 14.826098 4.63004771 16.2959374 7.44598316"></polyline>
                    <polyline id="路径-15备份" points="16.6675129 2.95131696 14.826098 4.63004771 13.3367183 6.97214787 12.6055682 7.78443694 11.4276043 9.97761744"></polyline>
                </g>
            </g>
        </g>
    </g>
</svg>